<svg width="336" height="129" viewBox="0 0 336 129" fill="none" xmlns="http://www.w3.org/2000/svg">
<g clip-path="url(#clip0_2007_4)">
<rect width="335.088" height="128.947" fill="white"/>
<path d="M320.624 73.5241V59.4641H319.195C313.979 66.3511 305.714 70.8011 296.409 70.8011L296.404 34.3981L301.076 29.7281V29.1021H267.324L267.327 17.3591C260.579 15.0201 253.233 14.1691 248.89 14.1691C236.035 14.1691 230.016 21.4671 229.987 29.1021H219.676V29.7281L224.347 34.3981V60.3881C224.347 63.4121 223.316 65.7281 221.253 67.2881C219.19 68.8491 216.09 70.1661 212.586 70.1661C209.084 70.1661 206.465 68.7451 204.734 67.2631C203.001 65.7801 202.135 63.7391 202.135 61.2421V34.3981L206.807 29.7281V29.1021H188.502V29.7281L193.173 34.3981V60.7671C193.173 64.7161 194.788 67.7361 198.019 69.8261C201.25 71.9161 205.453 73.5241 210.631 73.5241C213.301 73.5331 215.681 72.9941 217.772 72.1781C215.877 75.5671 214.803 79.4231 214.803 83.5091C214.803 92.0271 218.372 100.097 224.883 106.207C248.174 128.056 299.793 111.115 296.545 73.5241H320.624ZM283.486 30.4421L287.442 34.3981V54.7131C285.136 52.5891 282.47 50.7241 279.529 49.0431V34.3981L283.486 30.4421ZM248.89 16.8911C256.171 16.8911 261.608 21.1261 265.895 29.7301H265.898L270.567 34.3981V44.7261C263.316 41.7261 255.171 39.2441 246.968 36.5331C233.028 31.9251 237.242 16.8911 248.89 16.8911ZM230.147 31.3231C230.974 36.9451 235.007 42.3831 241.91 44.8551C254.949 49.5241 263.853 52.5181 270.567 55.6241V78.2131L266.879 81.9001C266.47 75.9551 263.802 70.4231 259.262 66.1791C254.341 61.5781 247.806 59.0451 240.862 59.0451C235.801 59.0451 231.073 60.4071 227.071 62.7611V34.3981L230.147 31.3231ZM226.736 104.212C220.792 98.7021 217.527 91.3451 217.527 83.5091C217.527 71.5211 227.994 61.7681 240.862 61.7681C247.113 61.7681 252.988 64.0411 257.403 68.1681C261.794 72.2721 264.212 77.7201 264.212 83.5091C264.212 91.2521 257.515 97.5501 249.179 97.5501C245.31 97.5501 242.148 94.6131 241.94 90.9181C244.941 89.7961 247.078 86.9031 247.078 83.5091C247.078 79.1441 243.539 75.6051 239.173 75.6051C234.807 75.6051 231.268 79.1441 231.268 83.5091C231.268 92.8751 239.415 100.273 249.095 100.273C258.932 100.273 266.935 92.7531 266.935 83.5091H284.2V82.8841L279.529 78.2131V60.8071C285.825 65.5101 287.444 70.1531 287.444 80.2691C287.444 107.055 247.964 123.884 226.736 104.212Z" fill="#205BB0"/>
<path d="M168.615 84.209H15.0574V82.853H168.615V84.209Z" fill="#020407"/>
<path d="M28.8932 48.2832H16.1782V48.1762C17.0662 47.9342 17.6552 47.5582 17.9422 47.0482C18.2382 46.5292 18.3862 45.6932 18.3862 44.5382V33.0502C18.3862 31.9052 18.2382 31.0732 17.9422 30.5542C17.6552 30.0442 17.0662 29.6682 16.1782 29.4262V29.3192H28.1312V33.1982H28.0302C27.3702 31.9452 26.8032 31.1312 26.3302 30.7552C25.8562 30.3792 25.1582 30.1912 24.2362 30.1912H21.0892V38.0832H24.2102C24.8622 38.0832 25.3732 37.9602 25.7462 37.7142C26.1182 37.4682 26.4902 37.0322 26.8632 36.4052H26.9642V40.6462H26.8632C26.4822 40.0112 26.1122 39.5732 25.7522 39.3312C25.3932 39.0902 24.8792 38.9692 24.2102 38.9692H21.0892V47.3972H24.9592C25.8312 47.3972 26.4992 47.2052 26.9642 46.8202C27.4212 46.4362 28.1992 45.4832 29.2992 43.9612H29.4012L28.8932 48.2832Z" fill="#020407"/>
<path d="M31.5958 47.5682V43.0952H31.6968C33.0678 46.3492 34.7208 47.9712 36.6588 47.9632C37.5558 47.9802 38.3298 47.6972 38.9808 47.1142C39.6318 46.5312 39.9578 45.7832 39.9578 44.8712C39.9498 43.4242 38.9598 42.0202 36.9888 40.6612C36.0418 40.0122 35.2208 39.4462 34.5268 38.9632C33.6548 38.3672 32.9388 37.6572 32.3758 36.8322C31.8138 36.0072 31.5368 35.1222 31.5448 34.1742C31.5448 32.7622 32.0988 31.6002 33.2068 30.6882C34.3318 29.7752 35.5498 29.3192 36.8618 29.3192C38.1818 29.3192 39.6998 29.6882 41.4168 30.4242V34.1222H41.3158C40.0038 31.4112 38.4608 30.0562 36.6838 30.0562C35.8718 30.0562 35.1568 30.3192 34.5398 30.8462C33.9218 31.3722 33.6138 32.0472 33.6138 32.8722C33.6138 34.2052 34.6118 35.5212 36.6078 36.8192C37.3608 37.3102 38.1988 37.8842 39.1208 38.5422C39.9998 39.1562 40.7208 39.9002 41.2838 40.7722C41.8468 41.6452 42.1238 42.5732 42.1148 43.5552C42.1148 45.0112 41.5778 46.2302 40.5038 47.2132C39.4378 48.1862 38.0288 48.6822 36.2778 48.6992C34.5438 48.6992 32.9828 48.3222 31.5958 47.5682Z" fill="#020407"/>
<path d="M54.2337 48.7007C51.4257 48.7007 49.0567 47.8187 47.1277 46.0557C45.1987 44.2927 44.2307 42.0387 44.2217 39.2937C44.2217 37.3467 44.7337 35.6007 45.7577 34.0567C46.7467 32.5747 47.9947 31.4147 49.5007 30.5767C51.0067 29.7397 52.6177 29.3207 54.3357 29.3207C55.0967 29.3207 55.9787 29.4217 56.9817 29.6237C57.9837 29.8247 58.8187 30.0747 59.4877 30.3727V34.0177H59.3727C58.1797 31.3777 56.4077 30.0577 54.0557 30.0577C52.1527 30.0577 50.5457 30.9087 49.2347 32.6097C47.9227 34.3117 47.2677 36.4427 47.2677 39.0037C47.2677 41.5477 47.9657 43.6797 49.3617 45.3987C50.7567 47.1177 52.4317 47.9727 54.3867 47.9637C56.8987 47.9637 58.7557 46.5647 59.9567 43.7667H60.0577L59.7407 47.5697C59.1657 47.8847 58.3667 48.1527 57.3427 48.3717C56.2517 48.5997 55.2157 48.7097 54.2337 48.7007Z" fill="#020407"/>
<path d="M76.8336 43.0892V35.0362C76.8336 33.0052 76.7066 31.6362 76.4536 30.9292C76.1906 30.2232 75.6326 29.7222 74.7776 29.4262V29.3192H80.0826V29.4262C79.4736 29.6322 79.0356 29.9092 78.7686 30.2582C78.5026 30.6072 78.3136 31.1262 78.2036 31.8152C78.1026 32.4692 78.0436 33.5422 78.0266 35.0362V43.1702C78.0266 44.8522 77.4006 46.1942 76.1486 47.1962C74.8966 48.1982 73.2426 48.6992 71.1866 48.6992C69.1226 48.6992 67.4396 48.2032 66.1366 47.2102C64.8246 46.2072 64.1736 44.8612 64.1826 43.1702V33.0502C64.1826 31.9052 64.0346 31.0732 63.7386 30.5542C63.4506 30.0442 62.8626 29.6682 61.9746 29.4262V29.3192H69.0936V29.4262C68.2046 29.6682 67.6166 30.0442 67.3296 30.5542C67.0326 31.0732 66.8856 31.9052 66.8856 33.0502V43.5592C66.8856 44.7222 67.2826 45.6712 68.0786 46.4042C68.8816 47.1472 70.0496 47.5182 71.5806 47.5182C72.2656 47.5182 72.9126 47.4332 73.5216 47.2632C74.1306 47.0932 74.6866 46.8382 75.1906 46.4982C75.6936 46.1582 76.0936 45.6952 76.3896 45.1092C76.6856 44.5232 76.8336 43.8502 76.8336 43.0892Z" fill="#020407"/>
<path d="M94.5605 48.2832H81.8455V48.1762C82.7335 47.9342 83.3225 47.5582 83.6095 47.0482C83.9055 46.5292 84.0535 45.6932 84.0535 44.5382V33.0502C84.0535 31.9052 83.9055 31.0732 83.6095 30.5542C83.3225 30.0442 82.7335 29.6682 81.8455 29.4262V29.3192H93.7985V33.1982H93.6975C93.0375 31.9452 92.4705 31.1312 91.9975 30.7552C91.5235 30.3792 90.8255 30.1912 89.9035 30.1912H86.7565V38.0832H89.8775C90.5295 38.0832 91.0415 37.9602 91.4135 37.7142C91.7855 37.4682 92.1575 37.0322 92.5305 36.4052H92.6315V40.6462H92.5305C92.1495 40.0112 91.7795 39.5732 91.4195 39.3312C91.0605 39.0902 90.5465 38.9692 89.8775 38.9692H86.7565V47.3972H90.6265C91.4985 47.3972 92.1665 47.2052 92.6315 46.8202C93.0885 46.4362 93.8665 45.4832 94.9665 43.9612H95.0685L94.5605 48.2832Z" fill="#020407"/>
<path d="M109.344 48.2832H96.8955V48.1762C97.7835 47.9342 98.3715 47.5582 98.6595 47.0482C98.9555 46.5292 99.1035 45.6932 99.1035 44.5382V33.0502C99.1035 31.9052 98.9555 31.0732 98.6595 30.5542C98.3715 30.0442 97.7835 29.6682 96.8955 29.4262V29.3192H104.015V29.4262C103.127 29.6682 102.538 30.0442 102.251 30.5542C101.954 31.0732 101.807 31.9052 101.807 33.0502V47.3972H105.931C106.498 47.3972 107.001 47.1652 107.441 46.6992C107.931 46.1812 108.722 45.1422 109.814 43.5862H109.915L109.344 48.2832Z" fill="#020407"/>
<path d="M115.879 40.6752H122.173L118.95 31.1322L115.879 40.6752ZM128.67 48.1772V48.2852H122.147V48.1772C122.714 48.0252 123.12 47.8202 123.366 47.5602C123.62 47.2922 123.742 46.8532 123.734 46.2452C123.734 45.6282 123.315 44.0802 122.477 41.6012H115.575C114.796 44.0892 114.407 45.6182 114.407 46.1912C114.407 46.7822 114.532 47.2182 114.781 47.4992C115.031 47.7822 115.439 48.0082 116.006 48.1772V48.2852H110.524V48.1772C111.04 47.9002 111.467 47.5562 111.806 47.1442C112.449 46.3572 113.35 44.2722 114.509 40.8902L118.506 29.3212H121.031L124.901 40.8632C125.773 43.4932 126.436 45.2652 126.893 46.1782C127.367 47.1262 127.959 47.7932 128.67 48.1772Z" fill="#020407"/>
<path d="M140.09 30.1932V47.3992H143.288C145.445 47.3992 147.158 46.5532 148.427 44.8622C149.696 43.1712 150.33 41.1182 150.33 38.7022C150.33 36.2862 149.67 34.2692 148.351 32.6492C147.031 31.0302 145.445 30.2112 143.592 30.1932H140.09ZM143.211 48.2852H135.179V48.1772C136.067 47.9362 136.655 47.5602 136.943 47.0502C137.239 46.5312 137.387 45.6942 137.387 44.5402V33.0522C137.387 31.9062 137.239 31.0742 136.943 30.5552C136.655 30.0452 136.067 29.6702 135.179 29.4282V29.3212H143.465C146.291 29.3212 148.646 30.1172 150.533 31.7092C152.419 33.3022 153.363 35.5972 153.363 38.5952C153.363 39.8472 153.194 40.9992 152.855 42.0512C152.517 43.1022 152.043 44.0082 151.434 44.7682C150.825 45.5292 150.098 46.1752 149.252 46.7082C148.406 47.2402 147.475 47.6362 146.46 47.8962C145.445 48.1552 144.362 48.2852 143.211 48.2852Z" fill="#020407"/>
<path d="M168.108 48.2832H155.393V48.1762C156.281 47.9342 156.87 47.5582 157.157 47.0482C157.453 46.5292 157.601 45.6932 157.601 44.5382V33.0502C157.601 31.9052 157.453 31.0732 157.157 30.5542C156.87 30.0442 156.281 29.6682 155.393 29.4262V29.3192H167.346V33.1982H167.245C166.585 31.9452 166.018 31.1312 165.545 30.7552C165.071 30.3792 164.373 30.1912 163.451 30.1912H160.304V38.0832H163.425C164.077 38.0832 164.589 37.9602 164.961 37.7142C165.333 37.4682 165.706 37.0322 166.078 36.4052H166.179V40.6462H166.078C165.697 40.0112 165.327 39.5732 164.967 39.3312C164.608 39.0902 164.094 38.9692 163.425 38.9692H160.304V47.3972H164.174C165.046 47.3972 165.714 47.2052 166.179 46.8202C166.636 46.4362 167.414 45.4832 168.514 43.9612H168.616L168.108 48.2832Z" fill="#020407"/>
<path d="M21.1509 55.1428V64.1588H23.6249C24.4759 64.1588 25.2039 63.9418 25.8099 63.5068C26.4149 63.0718 26.8569 62.5078 27.1379 61.8148C27.4189 61.1208 27.5599 60.3398 27.5599 59.4708C27.5599 58.2868 27.2569 57.2698 26.6519 56.4188C26.0379 55.5868 25.1029 55.1618 23.8479 55.1428H21.1509ZM23.8219 73.7288V73.8398H16.0579V73.7288C16.9799 73.4798 17.5889 73.0908 17.8879 72.5638C18.1939 72.0278 18.3479 71.1638 18.3479 69.9698V58.0968C18.3479 56.9138 18.1939 56.0538 17.8879 55.5168C17.5889 54.9898 16.9799 54.6018 16.0579 54.3518V54.2408H24.3359C26.3529 54.2408 27.8639 54.6688 28.8689 55.5248C29.8729 56.3798 30.3709 57.6578 30.3629 59.3598C30.3629 61.2458 29.7699 62.6698 28.5859 63.6318C27.4099 64.5838 25.9099 65.0598 24.0849 65.0598H21.1509V69.9698C21.1509 71.1448 21.3349 72.0068 21.7039 72.5568C22.0719 73.1068 22.7779 73.4978 23.8219 73.7288Z" fill="#020407"/>
<path d="M38.0981 70.2958C39.3441 72.1518 40.9141 73.0798 42.8091 73.0798C44.6951 73.0798 46.2701 72.1568 47.5331 70.3098C48.7881 68.4448 49.4151 66.2768 49.4151 63.8058C49.4151 61.3248 48.7921 59.1708 47.5471 57.3418C46.3091 55.5138 44.7351 54.5988 42.8221 54.5988C40.9101 54.5988 39.3311 55.5138 38.0851 57.3418C36.8391 59.1708 36.2161 61.3248 36.2161 63.8058C36.2161 66.2678 36.8431 68.4308 38.0981 70.2958ZM42.8091 53.8388C44.4681 53.8388 46.0271 54.2798 47.4871 55.1628C48.9481 56.0448 50.1481 57.2288 51.0871 58.7138C52.0601 60.2618 52.5561 61.9858 52.5741 63.8868C52.5741 64.9818 52.4071 66.0368 52.0741 67.0508C51.7401 68.0648 51.2681 68.9768 50.6591 69.7868C50.0491 70.5968 49.3431 71.3068 48.5401 71.9188C47.7381 72.5298 46.8451 72.9998 45.8621 73.3308C44.8791 73.6608 43.8661 73.8308 42.8221 73.8398C41.0681 73.8398 39.4411 73.3968 37.9401 72.5088C36.4401 71.6218 35.2511 70.4138 34.3741 68.8838C33.4971 67.3538 33.0581 65.6878 33.0581 63.8868C33.0581 62.5828 33.3251 61.3118 33.8611 60.0718C34.3961 58.8308 35.1061 57.7588 35.9931 56.8528C36.8791 55.9478 37.9211 55.2188 39.1181 54.6668C40.3151 54.1148 41.5461 53.8388 42.8091 53.8388Z" fill="#020407"/>
<path d="M55.8481 72.6718V68.0548H55.9531C57.3751 71.4138 59.0901 73.0888 61.0991 73.0798C62.0281 73.0978 62.8311 72.8058 63.5071 72.2038C64.1821 71.6018 64.5201 70.8298 64.5201 69.8888C64.5121 68.3948 63.4851 66.9468 61.4411 65.5438C60.4581 64.8738 59.6071 64.2898 58.8881 63.7918C57.9841 63.1758 57.2411 62.4428 56.6581 61.5918C56.0741 60.7418 55.7871 59.8268 55.7961 58.8488C55.7961 57.3918 56.3701 56.1928 57.5191 55.2508C58.6861 54.3098 59.9491 53.8388 61.3101 53.8388C62.6781 53.8388 64.2521 54.2188 66.0331 54.9798V58.7948H65.9281C64.5681 55.9978 62.9681 54.5988 61.1251 54.5988C60.2831 54.5988 59.5411 54.8708 58.9011 55.4138C58.2611 55.9568 57.9411 56.6538 57.9411 57.5048C57.9411 58.8808 58.9761 60.2388 61.0461 61.5788C61.8271 62.0858 62.6951 62.6788 63.6521 63.3568C64.5641 63.9908 65.3121 64.7578 65.8951 65.6588C66.4791 66.5598 66.7661 67.5168 66.7571 68.5308C66.7571 70.0338 66.2001 71.2918 65.0861 72.3058C63.9811 73.3098 62.5201 73.8218 60.7041 73.8398C58.9051 73.8398 57.2871 73.4498 55.8481 72.6718Z" fill="#020407"/>
<path d="M84.0346 72.1231V67.5721C84.0346 66.4171 83.8806 65.5771 83.5736 65.0531C83.2756 64.5391 82.6656 64.1591 81.7446 63.9161V63.7941H88.4296V63.9161C87.7536 64.1681 87.2895 64.5301 87.0345 64.9991C86.7895 65.4601 86.6706 66.3171 86.6796 67.5721V72.7061C84.0036 73.4271 81.7756 73.7891 79.9946 73.7891C77.1606 73.7891 74.7346 72.8501 72.7166 70.9721C70.6906 69.0941 69.6726 66.7331 69.6646 63.8891C69.6646 61.8571 70.2216 60.0601 71.3356 58.4981C72.4056 57.0001 73.7346 55.8481 75.3226 55.0451C76.9106 54.2411 78.6216 53.8391 80.4556 53.8391C81.2796 53.8391 82.2646 53.9361 83.4096 54.1311C84.5546 54.3251 85.4646 54.5711 86.1396 54.8691V58.6071H86.0345C84.5605 55.9431 82.6086 54.6161 80.1786 54.6251C78.1696 54.6251 76.4416 55.4831 74.9946 57.1981C73.5466 58.9141 72.8226 61.1081 72.8226 63.7801C72.8226 66.4531 73.5466 68.6561 74.9946 70.3891C76.4416 72.1231 78.2706 72.9851 80.4816 72.9761C81.6656 72.9761 82.8496 72.6921 84.0346 72.1231Z" fill="#020407"/>
<path d="M94.7341 55.1428V64.0618H97.0501C98.1641 64.0618 99.1241 63.6588 99.9321 62.8548C100.739 62.0498 101.143 60.9778 101.143 59.6368C101.143 58.2958 100.791 57.2148 100.09 56.3908C99.3971 55.5778 98.5371 55.1618 97.5101 55.1428H94.7341ZM106.88 73.7288V73.8398H105.077C103.63 73.8398 102.691 73.7158 102.261 73.4658C101.831 73.2158 101.226 72.4808 100.445 71.2598L96.4321 64.9488H94.7341V69.9698C94.7341 71.1538 94.8871 72.0188 95.1951 72.5638C95.4931 73.1008 96.1031 73.4888 97.0241 73.7288V73.8398H89.6411V73.7288C90.5631 73.4798 91.1721 73.0908 91.4711 72.5638C91.7771 72.0278 91.9311 71.1638 91.9311 69.9698V58.0968C91.9311 56.9138 91.7771 56.0538 91.4711 55.5168C91.1721 54.9898 90.5631 54.6018 89.6411 54.3518V54.2408H97.9191C99.9621 54.2408 101.493 54.6568 102.511 55.4898C103.529 56.3218 104.033 57.5698 104.025 59.2348C104.025 60.5758 103.551 61.6758 102.603 62.5358C101.629 63.3868 100.48 63.9918 99.1561 64.3528L103.38 70.5388C104.213 71.7778 104.827 72.5688 105.222 72.9108C105.608 73.2528 106.161 73.5258 106.88 73.7288Z" fill="#020407"/>
<path d="M112.811 65.9748H119.338L115.996 56.1128L112.811 65.9748ZM126.075 73.7288V73.8398H119.311V73.7288C119.899 73.5708 120.32 73.3588 120.575 73.0908C120.838 72.8128 120.965 72.3598 120.956 71.7308C120.956 71.0928 120.522 69.4928 119.654 66.9318H112.495C111.688 69.5028 111.284 71.0838 111.284 71.6758C111.284 72.2858 111.414 72.7368 111.673 73.0278C111.931 73.3188 112.355 73.5528 112.942 73.7288V73.8398H107.258V73.7288C107.793 73.4418 108.236 73.0858 108.587 72.6608C109.253 71.8468 110.187 69.6918 111.389 66.1968L115.535 54.2408H118.153L122.167 66.1688C123.071 68.8878 123.76 70.7188 124.233 71.6618C124.724 72.6418 125.339 73.3308 126.075 73.7288Z" fill="#020407"/>
<path d="M132.745 55.1428V72.9248H136.061C138.298 72.9248 140.075 72.0508 141.391 70.3028C142.707 68.5558 143.365 66.4338 143.365 63.9368C143.365 61.4398 142.68 59.3548 141.312 57.6808C139.943 56.0078 138.298 55.1618 136.377 55.1428H132.745ZM135.982 73.8398H127.652V73.7288C128.574 73.4798 129.183 73.0908 129.481 72.5638C129.788 72.0278 129.942 71.1638 129.942 69.9698V58.0968C129.942 56.9138 129.788 56.0538 129.481 55.5168C129.183 54.9898 128.574 54.6018 127.652 54.3518V54.2408H136.245C139.175 54.2408 141.619 55.0648 143.575 56.7098C145.531 58.3558 146.51 60.7278 146.51 63.8258C146.51 65.1208 146.334 66.3108 145.983 67.3978C145.633 68.4838 145.141 69.4198 144.509 70.2058C143.878 70.9918 143.123 71.6598 142.246 72.2098C141.369 72.7608 140.404 73.1698 139.351 73.4378C138.298 73.7058 137.175 73.8398 135.982 73.8398Z" fill="#020407"/>
<path d="M154.14 70.2958C155.386 72.1518 156.956 73.0798 158.851 73.0798C160.737 73.0798 162.312 72.1568 163.575 70.3098C164.83 68.4448 165.458 66.2768 165.458 63.8058C165.458 61.3248 164.834 59.1708 163.589 57.3418C162.351 55.5138 160.777 54.5988 158.864 54.5988C156.952 54.5988 155.373 55.5138 154.127 57.3418C152.881 59.1708 152.258 61.3248 152.258 63.8058C152.258 66.2678 152.885 68.4308 154.14 70.2958ZM158.851 53.8388C160.51 53.8388 162.069 54.2798 163.529 55.1628C164.99 56.0448 166.19 57.2288 167.129 58.7138C168.102 60.2618 168.598 61.9858 168.616 63.8868C168.616 64.9818 168.449 66.0368 168.116 67.0508C167.782 68.0648 167.31 68.9768 166.701 69.7868C166.091 70.5968 165.385 71.3068 164.582 71.9188C163.78 72.5298 162.887 72.9998 161.904 73.3308C160.921 73.6608 159.908 73.8308 158.864 73.8398C157.11 73.8398 155.483 73.3968 153.982 72.5088C152.482 71.6218 151.293 70.4138 150.416 68.8838C149.539 67.3538 149.1 65.6878 149.1 63.8868C149.1 62.5828 149.367 61.3118 149.903 60.0718C150.438 58.8308 151.148 57.7588 152.035 56.8528C152.921 55.9478 153.963 55.2188 155.16 54.6668C156.357 54.1148 157.588 53.8388 158.851 53.8388Z" fill="#020407"/>
</g>
<defs>
<clipPath id="clip0_2007_4">
<rect width="335.088" height="128.947" fill="white"/>
</clipPath>
</defs>
</svg>
